<svg width="172" height="48" viewBox="0 0 172 48" fill="none" xmlns="http://www.w3.org/2000/svg">
<rect width="172" height="48" rx="16" fill="black"/>
<path d="M39.6865 31.2197C42.8857 31.2197 44.8018 29.6729 44.8018 27.2383V27.2295C44.8018 25.2344 43.6064 24.1533 40.9521 23.626L39.6074 23.3535C38.1484 23.0635 37.498 22.5977 37.498 21.7979V21.7891C37.498 20.8838 38.3154 20.2598 39.6777 20.251C40.9873 20.251 41.9014 20.8574 42.0332 21.8506L42.042 21.9561H44.5469L44.5381 21.7891C44.415 19.5654 42.6133 18.0977 39.6777 18.0977C36.8652 18.0977 34.8438 19.627 34.8438 21.9473V21.9561C34.8438 23.8633 36.1094 25.0586 38.6143 25.5596L39.9502 25.8232C41.5234 26.1484 42.1475 26.5791 42.1475 27.4404V27.4492C42.1475 28.416 41.2246 29.0576 39.7568 29.0576C38.3066 29.0576 37.2607 28.4424 37.0938 27.458L37.0762 27.3613H34.5713L34.5801 27.502C34.7295 29.8398 36.6719 31.2197 39.6865 31.2197ZM50.5322 31.1934C53.3799 31.1934 55.1992 29.3652 55.1992 26.2891V26.2715C55.1992 23.2217 53.3447 21.3848 50.5234 21.3848C47.7109 21.3848 45.8652 23.2393 45.8652 26.2715V26.2891C45.8652 29.3564 47.667 31.1934 50.5322 31.1934ZM50.541 29.1807C49.2754 29.1807 48.4756 28.1348 48.4756 26.2891V26.2715C48.4756 24.4521 49.2842 23.3975 50.5234 23.3975C51.7715 23.3975 52.5889 24.4521 52.5889 26.2715V26.2891C52.5889 28.126 51.7891 29.1807 50.541 29.1807ZM60.833 31.1934C63.3467 31.1934 64.9727 29.6289 65.0957 27.5723V27.5195H62.7051L62.6963 27.5986C62.5205 28.5479 61.8789 29.1807 60.8506 29.1807C59.585 29.1807 58.7939 28.1348 58.7939 26.2891V26.2803C58.7939 24.4785 59.585 23.3975 60.8418 23.3975C61.9053 23.3975 62.5293 24.083 62.6875 24.9795L62.7051 25.0586H65.0869V24.9971C64.9902 22.958 63.3643 21.3848 60.8066 21.3848C57.9854 21.3848 56.1836 23.2568 56.1836 26.2715V26.2803C56.1836 29.3213 57.959 31.1934 60.833 31.1934ZM67.6709 20.3652C68.4443 20.3652 69.042 19.7588 69.042 19.0293C69.042 18.2998 68.4443 17.6934 67.6709 17.6934C66.8975 17.6934 66.2998 18.2998 66.2998 19.0293C66.2998 19.7588 66.8975 20.3652 67.6709 20.3652ZM66.3877 31H68.9541V21.5781H66.3877V31ZM73.4805 31.1494C74.7197 31.1494 75.7217 30.5605 76.2578 29.5938H76.3105V31H78.877V24.54C78.877 22.6416 77.3037 21.3848 74.8691 21.3848C72.3818 21.3848 70.8877 22.6328 70.7471 24.373L70.7383 24.4785H73.085L73.1025 24.3994C73.2256 23.793 73.8057 23.3447 74.7637 23.3447C75.7656 23.3447 76.3105 23.8633 76.3105 24.6982V25.2783L73.9814 25.4189C71.6436 25.5684 70.3164 26.5703 70.3164 28.2842V28.3018C70.3164 29.9629 71.5908 31.1494 73.4805 31.1494ZM72.8564 28.1699V28.1523C72.8564 27.4844 73.375 27.0625 74.3682 27.001L76.3105 26.8779V27.5547C76.3105 28.5391 75.4668 29.2773 74.3154 29.2773C73.4277 29.2773 72.8564 28.8643 72.8564 28.1699ZM80.5996 31H83.166V18.3174H80.5996V31ZM88.6855 31H91.0498V22.4219H91.1201L94.5479 31H96.2178L99.6367 22.4219H99.7158V31H102.08V18.3174H99.0127L95.4092 27.4316H95.3564L91.7529 18.3174H88.6855V31ZM108.259 31.1934C110.948 31.1934 112.249 29.6025 112.539 28.2139L112.565 28.1172H110.21L110.192 28.1699C110.008 28.6973 109.366 29.2773 108.312 29.2773C107.002 29.2773 106.185 28.3984 106.158 26.8955H112.645V26.1045C112.645 23.2568 110.913 21.3848 108.153 21.3848C105.394 21.3848 103.627 23.3008 103.627 26.2979V26.3066C103.627 29.3213 105.376 31.1934 108.259 31.1934ZM108.197 23.3008C109.261 23.3008 110.025 23.9775 110.184 25.2783H106.185C106.352 24.0039 107.143 23.3008 108.197 23.3008ZM117.461 31.1934C118.823 31.1934 119.86 30.5078 120.361 29.3916H120.414V31H122.98V18.3174H120.414V23.2129H120.361C119.852 22.0703 118.797 21.3848 117.461 21.3848C115.088 21.3848 113.629 23.2129 113.629 26.2803V26.2891C113.629 29.3477 115.088 31.1934 117.461 31.1934ZM118.322 29.0664C117.039 29.0664 116.239 28.0029 116.239 26.2891V26.2803C116.239 24.5576 117.048 23.5117 118.322 23.5117C119.562 23.5117 120.423 24.584 120.423 26.2803V26.2891C120.423 27.9941 119.57 29.0664 118.322 29.0664ZM126.03 20.3652C126.804 20.3652 127.401 19.7588 127.401 19.0293C127.401 18.2998 126.804 17.6934 126.03 17.6934C125.257 17.6934 124.659 18.2998 124.659 19.0293C124.659 19.7588 125.257 20.3652 126.03 20.3652ZM124.747 31H127.313V21.5781H124.747V31ZM131.84 31.1494C133.079 31.1494 134.081 30.5605 134.617 29.5938H134.67V31H137.236V24.54C137.236 22.6416 135.663 21.3848 133.229 21.3848C130.741 21.3848 129.247 22.6328 129.106 24.373L129.098 24.4785H131.444L131.462 24.3994C131.585 23.793 132.165 23.3447 133.123 23.3447C134.125 23.3447 134.67 23.8633 134.67 24.6982V25.2783L132.341 25.4189C130.003 25.5684 128.676 26.5703 128.676 28.2842V28.3018C128.676 29.9629 129.95 31.1494 131.84 31.1494ZM131.216 28.1699V28.1523C131.216 27.4844 131.734 27.0625 132.728 27.001L134.67 26.8779V27.5547C134.67 28.5391 133.826 29.2773 132.675 29.2773C131.787 29.2773 131.216 28.8643 131.216 28.1699Z" fill="#F2F2F2"/>
</svg>
